<svg width="52" height="52" viewBox="0 0 52 52" fill="none" xmlns="http://www.w3.org/2000/svg">
<rect width="52" height="52" rx="12" fill="url(#paint0_linear_7066_40299)"/>
<path d="M9.324 36V16.4H18.9C21.364 16.4 23.212 16.8667 24.444 17.8C25.6947 18.7333 26.32 19.9653 26.32 21.496C26.32 22.5227 26.068 23.4187 25.564 24.184C25.06 24.9307 24.3693 25.5093 23.492 25.92C22.6147 26.3307 21.6067 26.536 20.468 26.536L21 25.388C22.232 25.388 23.324 25.5933 24.276 26.004C25.228 26.396 25.9653 26.984 26.488 27.768C27.0293 28.552 27.3 29.5133 27.3 30.652C27.3 32.332 26.6373 33.648 25.312 34.6C23.9867 35.5333 22.036 36 19.46 36H9.324ZM13.832 32.584H19.124C20.3 32.584 21.1867 32.3973 21.784 32.024C22.4 31.632 22.708 31.016 22.708 30.176C22.708 29.3547 22.4 28.748 21.784 28.356C21.1867 27.9453 20.3 27.74 19.124 27.74H13.496V24.436H18.34C19.4413 24.436 20.2813 24.2493 20.86 23.876C21.4573 23.484 21.756 22.896 21.756 22.112C21.756 21.3467 21.4573 20.7773 20.86 20.404C20.2813 20.012 19.4413 19.816 18.34 19.816H13.832V32.584ZM30.7342 36V16.4H35.2702V32.304H45.0982V36H30.7342Z" fill="white"/>
<defs>
<linearGradient id="paint0_linear_7066_40299" x1="26" y1="0" x2="26" y2="52" gradientUnits="userSpaceOnUse">
<stop stop-color="#DD2819"/>
<stop offset="1" stop-color="#FFB2AC"/>
</linearGradient>
</defs>
</svg>
