<svg width="52" height="52" viewBox="0 0 52 52" fill="none" xmlns="http://www.w3.org/2000/svg">
<rect width="52" height="52" rx="10" fill="url(#paint0_linear_6615_38647)"/>
<path d="M24.1892 25.2028C25.2292 25.5321 26.0439 26.0868 26.6332 26.8668C27.2225 27.6295 27.5172 28.5741 27.5172 29.7008C27.5172 31.2955 26.8932 32.5261 25.6452 33.3928C24.4145 34.2421 22.6119 34.6668 20.2372 34.6668H10.8252V16.4668H19.7172C21.9359 16.4668 23.6345 16.8915 24.8132 17.7408C26.0092 18.5901 26.6072 19.7428 26.6072 21.1988C26.6072 22.0828 26.3905 22.8715 25.9572 23.5648C25.5412 24.2581 24.9519 24.8041 24.1892 25.2028ZM15.0112 19.6388V23.9288H19.1972C20.2372 23.9288 21.0259 23.7468 21.5632 23.3828C22.1005 23.0188 22.3692 22.4815 22.3692 21.7708C22.3692 21.0601 22.1005 20.5315 21.5632 20.1848C21.0259 19.8208 20.2372 19.6388 19.1972 19.6388H15.0112ZM19.9252 31.4948C21.0345 31.4948 21.8665 31.3128 22.4212 30.9488C22.9932 30.5848 23.2792 30.0215 23.2792 29.2588C23.2792 27.7508 22.1612 26.9968 19.9252 26.9968H15.0112V31.4948H19.9252Z" fill="white"/>
<path d="M36.0621 20.4708C38.2287 20.4708 39.8927 20.9908 41.0541 22.0308C42.2154 23.0535 42.7961 24.6048 42.7961 26.6848V34.6668H39.0001V32.9248C38.2374 34.2248 36.8161 34.8748 34.7361 34.8748C33.6614 34.8748 32.7254 34.6928 31.9281 34.3288C31.1481 33.9648 30.5501 33.4621 30.1341 32.8208C29.7181 32.1795 29.5101 31.4515 29.5101 30.6368C29.5101 29.3368 29.9954 28.3141 30.9661 27.5688C31.9541 26.8235 33.4707 26.4508 35.5161 26.4508H38.7401C38.7401 25.5668 38.4714 24.8908 37.9341 24.4228C37.3967 23.9375 36.5907 23.6948 35.5161 23.6948C34.7707 23.6948 34.0341 23.8161 33.3061 24.0588C32.5954 24.2841 31.9887 24.5961 31.4861 24.9948L30.0301 22.1608C30.7927 21.6235 31.7027 21.2075 32.7601 20.9128C33.8347 20.6181 34.9354 20.4708 36.0621 20.4708ZM35.7501 32.1448C36.4434 32.1448 37.0587 31.9888 37.5961 31.6768C38.1334 31.3475 38.5147 30.8708 38.7401 30.2468V28.8168H35.9581C34.2941 28.8168 33.4621 29.3628 33.4621 30.4548C33.4621 30.9748 33.6614 31.3908 34.0601 31.7028C34.4761 31.9975 35.0394 32.1448 35.7501 32.1448Z" fill="white"/>
<defs>
<linearGradient id="paint0_linear_6615_38647" x1="26" y1="0" x2="26" y2="52" gradientUnits="userSpaceOnUse">
<stop stop-color="#003FE2"/>
<stop offset="1" stop-color="#FF6A6A"/>
</linearGradient>
</defs>
</svg>
