<svg width="40" height="40" viewBox="0 0 40 40" fill="none" xmlns="http://www.w3.org/2000/svg">
<circle cx="20" cy="20" r="17" fill="white"/>
<path d="M24.3641 18.5454C23.0307 18.5454 22.061 19.7575 22.061 21.2121C22.061 22.6666 23.1519 23.7575 24.3641 23.7575C25.6974 23.7575 26.6671 22.5454 26.6671 21.0909C26.6671 19.7575 25.6974 18.5454 24.3641 18.5454Z" fill="#5865F2"/>
<path d="M15.7581 18.5454C14.4248 18.5454 13.4551 19.7575 13.4551 21.2121C13.4551 22.6666 14.546 23.7575 15.7581 23.7575C17.0915 23.7575 18.0612 22.5454 18.0612 21.0909C18.0612 19.7575 17.0915 18.5454 15.7581 18.5454Z" fill="#5865F2"/>
<path d="M20 0C8.9697 0 0 8.9697 0 20C0 31.0303 8.9697 40 20 40C31.0303 40 40 31.0303 40 20C40 9.09091 31.0303 0 20 0ZM32.8485 26.6667C30.9091 28.1212 28.606 29.2121 26.303 29.9394C25.8182 29.2121 25.3333 28.4848 24.8485 27.6364C25.5758 27.3939 26.303 27.0303 27.0303 26.5455C26.7879 26.4242 26.6667 26.303 26.5454 26.1818C22.4242 28.1212 17.5757 28.1212 13.4545 26.1818C13.3333 26.303 13.0909 26.4242 12.9697 26.5455C13.6969 26.9091 14.4242 27.2727 15.1515 27.6364C14.7879 28.4848 14.303 29.2121 13.697 29.9394C11.3939 29.2121 9.0909 28.1212 7.15151 26.6667C6.66666 21.8182 7.63633 16.9697 11.0303 11.8788C12.7272 11.1515 14.5455 10.5455 16.3636 10.1818C16.6061 10.6667 16.8485 11.1515 17.0909 11.6364C19.0303 11.3939 21.0909 11.3939 23.0303 11.6364C23.2727 11.1515 23.5151 10.6667 23.7575 10.1818C25.5757 10.5455 27.3939 11.0303 29.0909 11.8788C32 16.2424 33.4545 21.0909 32.8485 26.6667Z" fill="#5865F2"/>
</svg>
