<svg width="14" height="16" viewBox="0 0 14 16" fill="none" xmlns="http://www.w3.org/2000/svg">
<path d="M13.1306 11.0948C12.7281 10.4647 12 9.55554 12 9.55554C12 9.55554 11.2719 10.4647 10.8694 11.0949C10.2844 12.0108 10 12.7142 10 13.2454C10 14.5192 10.8972 15.5555 12 15.5555C13.1028 15.5555 14 14.5192 14 13.2454C14 12.7142 13.7156 12.0108 13.1306 11.0948Z" fill="#FFFFD5"/>
<path d="M9.36891 4.56068L9.21812 4.56229C9.02391 4.56437 8.84129 4.4886 8.70334 4.34888C8.5654 4.20912 8.48944 4.02273 8.48944 3.82404V2.28758H7.14901V1.37255H9.38306V0.457516H7.14901V0H6.2554V0.457516H4.02135V1.37255H6.2554V2.28758H4.91497V3.71088C4.91497 4.18746 4.53635 4.57516 4.07092 4.57516H2.94067C2.96534 4.7097 2.9788 4.84821 2.9788 4.98995V7.36299C2.9788 7.50473 2.96531 7.64324 2.94067 7.77778H9.38306C9.8758 7.77778 10.2767 8.18826 10.2767 8.69281V9.15033H13.4043V8.69281C13.4043 6.41435 11.594 4.56068 9.36891 4.56068Z" fill="#FFFFD5"/>
<path d="M0.786413 3.66013H0V8.69281H0.786413C1.5025 8.69281 2.08511 8.09623 2.08511 7.36299V4.98994C2.08511 4.2567 1.5025 3.66013 0.786413 3.66013Z" fill="#FFFFD5"/>
</svg>
