<svg width="46" height="40" viewBox="0 0 46 40" fill="none" xmlns="http://www.w3.org/2000/svg">
<path d="M22.9989 0C13.9735 0 6.65701 1.58127 6.65701 3.53179C6.65701 3.54202 8.04977 23.9594 8.05076 23.9735C13.3142 26.922 32.6839 26.9218 37.9469 23.9735C37.9475 23.9642 39.3406 3.54112 39.3406 3.53179C39.3406 1.58118 32.0241 0 22.9989 0Z" fill="url(#paint0_linear_373_6127)"/>
<path d="M37.5551 29.7361H8.44486C3.29044 30.797 0 32.4093 0 34.2152C0 37.4101 10.2974 40 23 40C35.7026 40 46 37.4101 46 34.2152C46 32.4093 42.7096 30.797 37.5551 29.7361Z" fill="url(#paint1_linear_373_6127)"/>
<path d="M8.04001 23.7797L8.45985 29.9381C8.45985 31.6738 14.9703 33.0808 23.0012 33.0808C31.0322 33.0808 37.5426 31.6739 37.5426 29.9381L37.9625 23.7797C32.7195 26.7363 13.2874 26.7386 8.04001 23.7797Z" fill="url(#paint2_linear_373_6127)"/>
<defs>
<linearGradient id="paint0_linear_373_6127" x1="22.9988" y1="0" x2="22.9988" y2="26.1848" gradientUnits="userSpaceOnUse">
<stop stop-color="#3D46BF"/>
<stop offset="1" stop-color="#03032F"/>
</linearGradient>
<linearGradient id="paint1_linear_373_6127" x1="23" y1="29.7361" x2="23" y2="40" gradientUnits="userSpaceOnUse">
<stop stop-color="#3D46BF"/>
<stop offset="1" stop-color="#03032F"/>
</linearGradient>
<linearGradient id="paint2_linear_373_6127" x1="23.0012" y1="23.7797" x2="23.0012" y2="33.0808" gradientUnits="userSpaceOnUse">
<stop stop-color="#FFE85F"/>
<stop offset="1" stop-color="#FFA800"/>
</linearGradient>
</defs>
</svg>
