<svg width="40" height="40" viewBox="0 0 40 40" fill="none" xmlns="http://www.w3.org/2000/svg">
    <path
        d="M16.9444 15.5556H8.61106C7.53888 15.5556 6.66669 14.6834 6.66669 13.611V8.61104C6.66669 7.53886 7.53888 6.66666 8.61106 6.66666H16.9444C18.0168 6.66666 18.889 7.53886 18.889 8.61104V13.611C18.889 14.6834 18.0168 15.5556 16.9444 15.5556ZM8.61106 8.33333C8.45787 8.33333 8.33335 8.45784 8.33335 8.61104V13.611C8.33335 13.7644 8.45787 13.889 8.61106 13.889H16.9444C17.0978 13.889 17.2223 13.7644 17.2223 13.611V8.61104C17.2223 8.45784 17.0978 8.33333 16.9444 8.33333H8.61106Z"
        fill="#020069" stroke="#020069" stroke-width="0.6" />
    <path
        d="M16.9444 33.3333H8.61106C7.53888 33.3333 6.66669 32.4611 6.66669 31.389V19.7223C6.66669 18.6499 7.53888 17.7777 8.61106 17.7777H16.9444C18.0168 17.7777 18.889 18.6499 18.889 19.7223V31.389C18.889 32.4611 18.0168 33.3333 16.9444 33.3333ZM8.61106 19.4444C8.45787 19.4444 8.33335 19.5689 8.33335 19.7223V31.389C8.33335 31.5422 8.45787 31.6667 8.61106 31.6667H16.9444C17.0978 31.6667 17.2223 31.5422 17.2223 31.389V19.7223C17.2223 19.5689 17.0978 19.4444 16.9444 19.4444H8.61106Z"
        fill="#020069" stroke="#020069" stroke-width="0.6" />
    <path
        d="M31.389 33.3333H23.0557C21.9833 33.3333 21.1111 32.4611 21.1111 31.389V26.389C21.1111 25.3166 21.9833 24.4444 23.0557 24.4444H31.389C32.4612 24.4444 33.3334 25.3166 33.3334 26.389V31.389C33.3334 32.4611 32.4612 33.3333 31.389 33.3333ZM23.0557 26.111C22.9023 26.111 22.7778 26.2356 22.7778 26.389V31.389C22.7778 31.5422 22.9023 31.6667 23.0557 31.6667H31.389C31.5422 31.6667 31.6667 31.5422 31.6667 31.389V26.389C31.6667 26.2356 31.5422 26.111 31.389 26.111H23.0557Z"
        fill="#020069" stroke="#020069" stroke-width="0.6" />
    <path
        d="M31.389 22.2223H23.0557C21.9833 22.2223 21.1111 21.3501 21.1111 20.2777V8.61104C21.1111 7.53886 21.9833 6.66666 23.0557 6.66666H31.389C32.4612 6.66666 33.3334 7.53886 33.3334 8.61104V20.2777C33.3334 21.3501 32.4612 22.2223 31.389 22.2223ZM23.0557 8.33333C22.9023 8.33333 22.7778 8.45784 22.7778 8.61104V20.2777C22.7778 20.4311 22.9023 20.5556 23.0557 20.5556H31.389C31.5422 20.5556 31.6667 20.4311 31.6667 20.2777V8.61104C31.6667 8.45784 31.5422 8.33333 31.389 8.33333H23.0557Z"
        fill="#020069" stroke="#020069" stroke-width="0.6" />
</svg>