<svg width="48" height="48" viewBox="0 0 48 48" fill="none" xmlns="http://www.w3.org/2000/svg">
<g clip-path="url(#clip0_404_1298)">
<path d="M24 48C37.2548 48 48 37.2548 48 24C48 10.7452 37.2548 0 24 0C10.7452 0 0 10.7452 0 24C0 37.2548 10.7452 48 24 48Z" fill="url(#paint0_linear_404_1298)"/>
<path d="M24 42.375C34.1482 42.375 42.375 34.1482 42.375 24C42.375 13.8518 34.1482 5.625 24 5.625C13.8518 5.625 5.625 13.8518 5.625 24C5.625 34.1482 13.8518 42.375 24 42.375Z" fill="url(#paint1_linear_404_1298)"/>
<path d="M24 10.0303C20.2649 10.0381 16.8448 11.5121 14.3429 13.907L24 23.8261V10.0303Z" fill="#FFCE00"/>
<path d="M14.3428 13.907C11.7116 16.4256 10.063 19.9626 10.0314 23.8853H23.9999V23.8262L14.3428 13.907Z" fill="#FFAA00"/>
<path d="M10.0299 24C10.0299 27.8031 11.5503 31.2505 14.0156 33.7696L24 23.9627V23.8853H10.0313C10.031 23.9236 10.0299 23.9617 10.0299 24Z" fill="#FF6C52"/>
<path d="M24 37.9697V23.9627L14.0156 33.7695C16.5453 36.3543 20.0995 37.9615 24 37.9697Z" fill="#FF432E"/>
<path d="M23.9999 23.8853L33.9176 14.163C31.3866 11.611 27.8783 10.0299 23.9999 10.0299C23.99 10.0299 24.0099 10.0302 23.9999 10.0303V23.8261V23.8853Z" fill="#1DD882"/>
<path d="M33.9176 14.1631L24 23.8853H37.9686C37.9381 20.0937 36.3967 16.6627 33.9176 14.1631Z" fill="#4253CE"/>
<path d="M37.9701 24C37.9701 23.9617 37.9689 23.9236 37.9686 23.8853H24V23.8959L33.8005 33.9543C36.374 31.4203 37.9701 27.8968 37.9701 24Z" fill="#7584F2"/>
<path d="M23.9999 23.8959V23.9627V37.9697C24.0099 37.9697 23.99 37.9701 23.9999 37.9701C27.8186 37.9701 31.2788 36.4373 33.8005 33.9543L23.9999 23.8959Z" fill="#A3D4FF"/>
<path d="M28.8185 5.18212L23.9999 12.7677L19.1219 5.18203L28.8185 5.18212Z" fill="#555A66"/>
<path d="M28.8186 5.18212L24 5.18203V12.7656V12.7676L28.8186 5.18212Z" fill="#333940"/>
<path d="M26.9185 26.9236C28.5332 25.3089 28.5332 22.6911 26.9185 21.0764C25.3038 19.4617 22.686 19.4617 21.0713 21.0764C19.4566 22.6911 19.4566 25.3089 21.0713 26.9236C22.686 28.5383 25.3038 28.5383 26.9185 26.9236Z" fill="url(#paint2_linear_404_1298)"/>
</g>
<defs>
<linearGradient id="paint0_linear_404_1298" x1="24" y1="0" x2="24" y2="48" gradientUnits="userSpaceOnUse">
<stop stop-color="#FF6C52"/>
<stop offset="1" stop-color="#CE2113"/>
</linearGradient>
<linearGradient id="paint1_linear_404_1298" x1="24" y1="5.625" x2="24" y2="42.375" gradientUnits="userSpaceOnUse">
<stop stop-color="white"/>
<stop offset="1" stop-color="white" stop-opacity="0.7"/>
</linearGradient>
<linearGradient id="paint2_linear_404_1298" x1="21.0713" y1="21.0764" x2="26.9185" y2="26.9236" gradientUnits="userSpaceOnUse">
<stop stop-color="white"/>
<stop offset="1" stop-color="white" stop-opacity="0.5"/>
</linearGradient>
<clipPath id="clip0_404_1298">
<rect width="48" height="48" fill="white"/>
</clipPath>
</defs>
</svg>
