<svg width="56" height="48" viewBox="0 0 56 48" fill="none" xmlns="http://www.w3.org/2000/svg">
<path d="M55.9992 23.9999H44.7884L36.3884 38.2627L41.9884 47.7748C42.2399 47.6247 42.4587 47.4209 42.6118 47.1635L55.7586 24.8364C55.9227 24.579 55.9992 24.2895 55.9992 23.9999Z" fill="#FF7B05"/>
<path d="M36.3997 38.2627H19.5998L13.9999 47.7748C14.2514 47.9249 14.5467 48 14.853 48H41.1466C41.4528 48 41.7481 47.9249 41.9997 47.7748L36.3997 38.2627Z" fill="#FF9416"/>
<path d="M19.5999 38.2627L11.1999 23.9999H0C0 24.2895 0.076562 24.579 0.229686 24.8364L13.3765 47.1635C13.5296 47.4209 13.7483 47.6354 13.9999 47.7748L19.5999 38.2627Z" fill="#FFC13F"/>
<path d="M19.5999 9.73686L13.9999 0.224785C13.7483 0.364195 13.5296 0.578673 13.3765 0.836046L0.229686 23.1631C0.076562 23.4205 0 23.7101 0 23.9996H11.2109L19.5999 9.73686Z" fill="#FFE85F"/>
<path d="M19.5998 9.73729H36.3888L41.9997 0.225201C41.7481 0.0857909 41.4528 0 41.1466 0H14.853C14.5467 0 14.2514 0.075067 13.9999 0.225201L19.5998 9.73729Z" fill="#FFC13F"/>
<path d="M36.4001 9.73686L44.8001 23.9996H56C56 23.7101 55.9235 23.4205 55.7703 23.1631L42.6235 0.836046C42.4704 0.578673 42.2517 0.364195 42.0001 0.224785L36.4001 9.73686Z" fill="#FF9416"/>
<path d="M36.3333 9.73718H19.5444L11.1444 23.9999L19.5444 38.2627H36.3333L44.7223 23.9999L36.3333 9.73718Z" fill="url(#paint0_linear_404_1276)"/>
<path d="M27.8239 21.4047C30.5724 21.4047 32.8005 19.2201 32.8005 16.5253C32.8005 13.8305 30.5724 11.6459 27.8239 11.6459C25.0755 11.6459 22.8474 13.8305 22.8474 16.5253C22.8474 19.2201 25.0755 21.4047 27.8239 21.4047Z" fill="#FFE85F"/>
<path d="M36.4216 29.0402C39.1701 29.0402 41.3981 26.8556 41.3981 24.1608C41.3981 21.466 39.1701 19.2814 36.4216 19.2814C33.6731 19.2814 31.4451 21.466 31.4451 24.1608C31.4451 26.8556 33.6731 29.0402 36.4216 29.0402Z" fill="#FFE85F"/>
<path d="M20.0488 29.0402C22.7973 29.0402 25.0253 26.8556 25.0253 24.1608C25.0253 21.466 22.7973 19.2814 20.0488 19.2814C17.3003 19.2814 15.0723 21.466 15.0723 24.1608C15.0723 26.8556 17.3003 29.0402 20.0488 29.0402Z" fill="#FFE85F"/>
<path d="M27.8239 36.4612C30.5724 36.4612 32.8005 34.2767 32.8005 31.5819C32.8005 28.8871 30.5724 26.7025 27.8239 26.7025C25.0755 26.7025 22.8474 28.8871 22.8474 31.5819C22.8474 34.2767 25.0755 36.4612 27.8239 36.4612Z" fill="#FFE85F"/>
<defs>
<linearGradient id="paint0_linear_404_1276" x1="11.1452" y1="23.9999" x2="44.7276" y2="23.9999" gradientUnits="userSpaceOnUse">
<stop stop-color="#FFA408"/>
<stop offset="1" stop-color="#F03800"/>
</linearGradient>
</defs>
</svg>
