<svg width="58" height="56" viewBox="0 0 58 56" fill="none" xmlns="http://www.w3.org/2000/svg">
<path fill-rule="evenodd" clip-rule="evenodd" d="M25.0994 33.5369C24.7509 33.4412 24.3636 33.489 24.0538 33.6805C23.7439 33.8601 23.5245 34.1593 23.4728 34.4944L22.2465 41.2926C22.1819 41.6397 22.2852 41.9987 22.5305 42.2621C22.7757 42.5254 23.1372 42.681 23.5116 42.681H34.4715C34.8458 42.681 35.2073 42.5254 35.4526 42.2621C35.6979 41.9987 35.8011 41.6397 35.7366 41.2926L34.5102 34.4944C34.4457 34.1593 34.2391 33.8601 33.9293 33.6805C33.6195 33.501 33.2322 33.4531 32.8836 33.5369C31.6315 33.872 30.3147 34.0396 28.9851 34.0396C28.9851 34.0396 28.9851 34.0396 28.9722 34.0396C27.6683 34.0396 26.3516 33.872 25.0994 33.5369Z" fill="url(#paint0_linear_404_1184)"/>
<path fill-rule="evenodd" clip-rule="evenodd" d="M43.4457 49.0954V43.3983C43.4457 41.6748 41.9483 40.2864 40.0893 40.2864H17.9113C16.0524 40.2864 14.5549 41.6748 14.5549 43.3983V49.0954C14.5549 49.7536 15.1358 50.2922 15.8459 50.2922H42.1419C42.8648 50.2922 43.4457 49.7656 43.4457 49.0954Z" fill="url(#paint1_linear_404_1184)"/>
<path fill-rule="evenodd" clip-rule="evenodd" d="M43.7922 9.9574C43.392 10.1728 43.1467 10.5678 43.1467 10.9987V15.6186C43.1467 16.0614 43.4049 16.4683 43.8309 16.6718C44.244 16.8753 44.7604 16.8633 45.1476 16.6239C46.5676 15.7622 47.8844 15.0441 49.072 14.6012C49.5109 14.4456 49.9111 14.302 50.2726 14.2541C50.4791 14.2302 50.6599 14.2422 50.789 14.4217C51.3182 15.1279 51.2408 16.0614 50.9568 17.0428C50.2339 19.4605 48.0522 22.0577 44.9669 24.0924C44.2053 24.595 43.4178 25.0379 42.6432 25.4209C42.3722 25.5525 42.1656 25.756 42.0494 26.0193C41.1458 28.0061 39.7387 29.7416 37.9701 31.094C37.5183 31.4411 37.3763 32.0156 37.6087 32.5063C37.841 32.997 38.409 33.2843 38.9899 33.2005C42.1527 32.7337 45.6511 31.4411 48.9042 29.2987C53.4612 26.2946 56.4819 22.309 57.5405 18.7424C58.4312 15.7263 58.0181 12.9256 56.3786 10.7713C54.4035 8.15014 51.7442 7.42005 48.4395 8.13817C47.0453 8.41345 45.4833 9.05976 43.7922 9.9574Z" fill="url(#paint2_linear_404_1184)"/>
<path fill-rule="evenodd" clip-rule="evenodd" d="M14.8632 10.9992C14.8632 10.5683 14.6179 10.1734 14.2177 9.95792C12.5137 9.06027 10.9517 8.41397 9.5575 8.11475C6.26566 7.39663 3.59345 8.12672 1.61834 10.7479C-0.00821488 12.9022 -0.434218 15.7029 0.456516 18.719C1.51507 22.2856 4.53582 26.2712 9.09277 29.2753C12.3588 31.4297 15.8443 32.7223 19.007 33.1771C19.588 33.2609 20.143 32.9736 20.3883 32.4829C20.6336 31.9922 20.4787 31.4057 20.0269 31.0706C18.2583 29.7301 16.8512 27.9827 15.9476 25.9959C15.8314 25.7446 15.6248 25.5291 15.3537 25.3975C14.5663 25.0145 13.7917 24.5716 13.0301 24.0689C9.94478 22.0343 7.75022 19.4371 7.04021 17.0194C6.7433 16.038 6.66584 15.1044 7.20803 14.3983C7.33712 14.2307 7.51785 14.2068 7.7244 14.2307C8.09876 14.2786 8.49895 14.4103 8.92495 14.5778C10.1255 15.0207 11.4422 15.7388 12.8493 16.6005C13.2495 16.8399 13.753 16.8638 14.1661 16.6484C14.5792 16.4449 14.8503 16.038 14.8503 15.5952V10.9992H14.8632Z" fill="url(#paint3_linear_404_1184)"/>
<path fill-rule="evenodd" clip-rule="evenodd" d="M45.7162 6.045C45.7162 5.38673 45.1353 4.84814 44.4253 4.84814H13.5723C12.8623 4.84814 12.2814 5.38673 12.2814 6.045V20.934C12.2814 29.4916 19.7687 36.4334 28.9988 36.4334C38.2289 36.4334 45.7162 29.4916 45.7162 20.934C45.7162 13.5493 45.7162 6.045 45.7162 6.045Z" fill="url(#paint4_linear_404_1184)"/>
<path d="M28.9984 29.5872C34.7305 29.5872 39.3774 25.2789 39.3774 19.9644C39.3774 14.6499 34.7305 10.3416 28.9984 10.3416C23.2662 10.3416 18.6194 14.6499 18.6194 19.9644C18.6194 25.2789 23.2662 29.5872 28.9984 29.5872Z" fill="url(#paint5_linear_404_1184)"/>
<path fill-rule="evenodd" clip-rule="evenodd" d="M29.8939 14.6257C29.6548 14.302 29.2646 14.0983 28.8493 14.0983C28.434 14.0983 28.0438 14.2901 27.8047 14.6257L26.3825 16.6277L23.9409 17.311C23.5382 17.4189 23.2235 17.7186 23.0977 18.0902C22.9718 18.4618 23.0473 18.8814 23.2991 19.1931L24.8471 21.1111L24.7716 23.5327C24.759 23.9283 24.9478 24.2999 25.2876 24.5397C25.6274 24.7794 26.0553 24.8274 26.4455 24.6955L28.8367 23.8803L31.228 24.6955C31.6181 24.8274 32.0586 24.7674 32.3858 24.5397C32.7131 24.3119 32.9144 23.9283 32.9019 23.5327L32.8263 21.1111L34.3744 19.1931C34.6261 18.8814 34.7016 18.4618 34.5757 18.0902C34.4499 17.7186 34.1352 17.4189 33.7325 17.311L31.2909 16.6277L29.8939 14.6257Z" fill="#FFE26F"/>
<path fill-rule="evenodd" clip-rule="evenodd" d="M47.8203 3.14775C47.8203 2.30995 47.4588 1.50805 46.8263 0.921585C46.1937 0.335122 45.3288 0 44.4251 0C38.1513 0 19.6524 0 13.3914 0C12.4749 0 11.6229 0.335122 10.9774 0.921585C10.3449 1.50805 9.9834 2.30995 9.9834 3.14775V4.09327C9.9834 4.93108 10.3449 5.73298 10.9774 6.31944C11.61 6.9059 12.4749 7.24102 13.3785 7.24102H44.4122C45.3159 7.24102 46.1808 6.9059 46.8133 6.31944C47.4459 5.73298 47.8074 4.93108 47.8074 4.09327V3.14775H47.8203Z" fill="url(#paint6_linear_404_1184)"/>
<path fill-rule="evenodd" clip-rule="evenodd" d="M48.9189 51.9546C48.9189 50.8774 48.4542 49.8481 47.6409 49.0941C46.8147 48.3401 45.7045 47.9092 44.5556 47.9092H13.4574C12.2955 47.9092 11.1853 48.3401 10.3721 49.0941C9.54588 49.8601 9.09406 50.8894 9.09406 51.9546C9.09406 53.0318 9.55879 54.0611 10.3721 54.8151C11.1853 55.5811 12.3084 56 13.4574 56H44.5427C45.7045 56 46.8147 55.5691 47.628 54.8151C48.4542 54.0611 48.9189 53.0318 48.9189 51.9546Z" fill="url(#paint7_linear_404_1184)"/>
<defs>
<linearGradient id="paint0_linear_404_1184" x1="28.9981" y1="38.8206" x2="28.9981" y2="32.6812" gradientUnits="userSpaceOnUse">
<stop stop-color="#FFBC08"/>
<stop offset="1" stop-color="#FF9416"/>
</linearGradient>
<linearGradient id="paint1_linear_404_1184" x1="29.0006" y1="43.3263" x2="29.0006" y2="52.4617" gradientUnits="userSpaceOnUse">
<stop stop-color="#2D77FF"/>
<stop offset="1" stop-color="#4B0AFF"/>
</linearGradient>
<linearGradient id="paint2_linear_404_1184" x1="50.8358" y1="20.5252" x2="39.6214" y2="20.5252" gradientUnits="userSpaceOnUse">
<stop stop-color="#FFBC08"/>
<stop offset="1" stop-color="#F99335"/>
</linearGradient>
<linearGradient id="paint3_linear_404_1184" x1="7.82053" y1="20.5261" x2="17.2381" y2="20.5261" gradientUnits="userSpaceOnUse">
<stop stop-color="#FFBC08"/>
<stop offset="1" stop-color="#F99335"/>
</linearGradient>
<linearGradient id="paint4_linear_404_1184" x1="28.9991" y1="10.7725" x2="28.9991" y2="2.39441" gradientUnits="userSpaceOnUse">
<stop stop-color="#FFE85F"/>
<stop offset="1" stop-color="#FFA800"/>
</linearGradient>
<linearGradient id="paint5_linear_404_1184" x1="28.9984" y1="10.3416" x2="28.9984" y2="29.5872" gradientUnits="userSpaceOnUse">
<stop stop-color="#FF7A50"/>
<stop offset="1" stop-color="#FF961B"/>
</linearGradient>
<linearGradient id="paint6_linear_404_1184" x1="28.903" y1="4.85073" x2="28.903" y2="12.0108" gradientUnits="userSpaceOnUse">
<stop stop-color="#FFBC08"/>
<stop offset="1" stop-color="#F99335"/>
</linearGradient>
<linearGradient id="paint7_linear_404_1184" x1="29.0002" y1="52.9" x2="29.0002" y2="64.8686" gradientUnits="userSpaceOnUse">
<stop stop-color="#FFBC08"/>
<stop offset="1" stop-color="#F99335"/>
</linearGradient>
</defs>
</svg>
