<svg width="24" height="24" viewBox="0 0 24 24" fill="none" xmlns="http://www.w3.org/2000/svg">
<path d="M12 24C18.6274 24 24 18.6274 24 12C24 5.37258 18.6274 0 12 0C5.37258 0 0 5.37258 0 12C0 18.6274 5.37258 24 12 24Z" fill="url(#paint0_linear_7823_42121)"/>
<path d="M12 21.1875C17.0741 21.1875 21.1875 17.0741 21.1875 12C21.1875 6.92588 17.0741 2.8125 12 2.8125C6.92588 2.8125 2.8125 6.92588 2.8125 12C2.8125 17.0741 6.92588 21.1875 12 21.1875Z" fill="url(#paint1_linear_7823_42121)"/>
<path d="M11.9999 5.01514C10.1324 5.01903 8.42234 5.75604 7.17139 6.95347L11.9999 11.913V5.01514Z" fill="#FFCE00"/>
<path d="M7.17185 6.95361C5.85621 8.21291 5.03191 9.98141 5.01611 11.9428H12.0004V11.9132L7.17185 6.95361Z" fill="#FFAA00"/>
<path d="M5.01514 12.0002C5.01514 13.9018 5.77536 15.6255 7.00798 16.885L12.0002 11.9816V11.9429H5.01584C5.0157 11.962 5.01514 11.9811 5.01514 12.0002Z" fill="#FF6C52"/>
<path d="M12 18.9849V11.9814L7.00781 16.8849C8.27264 18.1772 10.0498 18.9809 12 18.9849Z" fill="#FF432E"/>
<path d="M12 11.9428L16.9588 7.08167C15.6933 5.80568 13.9391 5.01514 12 5.01514C11.995 5.01514 12.0049 5.01528 12 5.01532V11.9132V11.9428Z" fill="#1DD882"/>
<path d="M16.9588 7.08154L12 11.9426H18.9843C18.969 10.0469 18.1983 8.33132 16.9588 7.08154Z" fill="#4253CE"/>
<path d="M18.985 12.0002C18.985 11.9811 18.9845 11.962 18.9843 11.9429H12V11.9482L16.9003 16.9774C18.187 15.7104 18.985 13.9487 18.985 12.0002Z" fill="#7584F2"/>
<path d="M12 11.9482V11.9816V18.9851C12.0049 18.9851 11.995 18.9853 12 18.9853C13.9093 18.9853 15.6394 18.2189 16.9002 16.9774L12 11.9482Z" fill="#A3D4FF"/>
<path d="M14.4093 2.59087L12 6.38366L9.56104 2.59082L14.4093 2.59087Z" fill="#555A66"/>
<path d="M14.4093 2.59087L12 2.59082V6.38259V6.38362L14.4093 2.59087Z" fill="#333940"/>
<path d="M13.4591 13.4618C14.2665 12.6545 14.2665 11.3455 13.4591 10.5382C12.6518 9.73087 11.3429 9.73087 10.5355 10.5382C9.7282 11.3455 9.7282 12.6545 10.5355 13.4618C11.3429 14.2691 12.6518 14.2691 13.4591 13.4618Z" fill="url(#paint2_linear_7823_42121)"/>
<defs>
<linearGradient id="paint0_linear_7823_42121" x1="12" y1="0" x2="12" y2="24" gradientUnits="userSpaceOnUse">
<stop stop-color="#FF6C52"/>
<stop offset="1" stop-color="#CE2113"/>
</linearGradient>
<linearGradient id="paint1_linear_7823_42121" x1="12" y1="2.8125" x2="12" y2="21.1875" gradientUnits="userSpaceOnUse">
<stop stop-color="white"/>
<stop offset="1" stop-color="white" stop-opacity="0.7"/>
</linearGradient>
<linearGradient id="paint2_linear_7823_42121" x1="10.5355" y1="10.5382" x2="13.4591" y2="13.4618" gradientUnits="userSpaceOnUse">
<stop stop-color="white"/>
<stop offset="1" stop-color="white" stop-opacity="0.5"/>
</linearGradient>
</defs>
</svg>
