<svg width="40" height="40" viewBox="0 0 40 40" fill="none" xmlns="http://www.w3.org/2000/svg">
    <path
        d="M36.6666 20C36.6666 10.7941 29.2051 3.33333 20 3.33333C10.7941 3.33333 3.33331 10.7949 3.33331 20C3.33331 29.2059 10.7949 36.6667 20 36.6667C29.2059 36.6667 36.6666 29.2051 36.6666 20ZM5.32756 20.9804H8.47331C8.68031 23.4348 9.65671 25.6733 11.16 27.4535L8.93645 29.6771C6.87161 27.3194 5.5471 24.2987 5.32756 20.9804ZM8.93645 10.3229L11.1601 12.5465C9.65671 14.3267 8.68031 16.5652 8.47331 19.0196H5.32756C5.5471 15.7013 6.87161 12.6806 8.93645 10.3229ZM34.6724 19.0196H31.5266C31.3197 16.5652 30.3433 14.3267 28.8399 12.5465L31.0636 10.3229C33.1283 12.6806 34.4529 15.7013 34.6724 19.0196ZM20 29.6078C14.7022 29.6078 10.3921 25.2978 10.3921 20C10.3921 14.7022 14.7022 10.3922 20 10.3922C25.2978 10.3922 29.6078 14.7022 29.6078 20C29.6078 25.2978 25.2978 29.6078 20 29.6078ZM27.4534 11.1601C25.6732 9.65673 23.4348 8.68033 20.9804 8.47333V5.32758C24.2986 5.54712 27.3194 6.87163 29.677 8.93647L27.4534 11.1601ZM19.0196 8.47333C16.5651 8.68033 14.3267 9.65673 12.5465 11.1601L10.3229 8.93647C12.6806 6.87163 15.7014 5.54712 19.0196 5.32758V8.47333ZM12.5465 28.8399C14.3267 30.3432 16.5651 31.3197 19.0196 31.5266V34.6724C15.7014 34.4528 12.6806 33.1282 10.3229 31.0635L12.5465 28.8399ZM20.9804 31.5267C23.4348 31.3197 25.6732 30.3433 27.4534 28.8399L29.6771 31.0636C27.3195 33.1284 24.2987 34.4529 20.9804 34.6725V31.5267H20.9804ZM28.8399 27.4535C30.3433 25.6733 31.3197 23.4348 31.5266 20.9804H34.6724C34.4529 24.2987 33.1283 27.3194 31.0635 29.6771L28.8399 27.4535Z"
        fill="#B7C2E8" stroke="#B7C2E8" stroke-width="0.4" />
    <path d="M20 15V25" stroke="#B7C2E8" stroke-width="2" stroke-linecap="round" />
    <path d="M25 20L15 20" stroke="#B7C2E8" stroke-width="2" stroke-linecap="round" />
</svg>