<svg width="24" height="24" viewBox="0 0 24 24" fill="none" xmlns="http://www.w3.org/2000/svg">
<path fill-rule="evenodd" clip-rule="evenodd" d="M12 1.00002C12.3806 1.00002 12.7283 1.21609 12.8967 1.55739L15.7543 7.34648L22.1447 8.28053C22.5212 8.33557 22.8339 8.59957 22.9513 8.96158C23.0687 9.32359 22.9704 9.72084 22.6978 9.98637L18.0746 14.4894L19.1656 20.851C19.23 21.2262 19.0757 21.6053 18.7678 21.8291C18.4598 22.0528 18.0515 22.0823 17.7146 21.9051L12 18.8999L6.28548 21.9051C5.94856 22.0823 5.54027 22.0528 5.2323 21.8291C4.92432 21.6053 4.77007 21.2262 4.83442 20.851L5.92551 14.4894L1.3023 9.98637C1.02968 9.72084 0.931405 9.32359 1.04878 8.96158C1.16616 8.59957 1.47884 8.33557 1.8554 8.28053L8.24577 7.34648L11.1033 1.55739C11.2718 1.21609 11.6194 1.00002 12 1.00002ZM12 4.25927L9.80674 8.70264C9.6612 8.99749 9.38001 9.20194 9.05466 9.2495L4.14844 9.96662L7.69776 13.4237C7.93364 13.6534 8.0413 13.9845 7.98564 14.3091L7.14821 19.1917L11.5346 16.8849C11.826 16.7317 12.1741 16.7317 12.4655 16.8849L16.8518 19.1917L16.0144 14.3091C15.9588 13.9845 16.0664 13.6534 16.3023 13.4237L19.8516 9.96662L14.9454 9.2495C14.62 9.20194 14.3389 8.99749 14.1933 8.70264L12 4.25927Z" fill="#B7C2E8"/>
</svg>
