<svg width="40" height="40" viewBox="0 0 40 40" fill="none" xmlns="http://www.w3.org/2000/svg">
<path fill-rule="evenodd" clip-rule="evenodd" d="M29.4242 8.5647H11.4085V14.9025C11.4085 19.1108 15.1949 22.9647 20.4164 22.9647C25.6378 22.9647 29.4242 19.1108 29.4242 14.9025V8.5647ZM30.8067 6.23529C31.2849 6.23529 31.6762 6.59639 31.6762 7.03773V14.9025C31.6762 20.6399 26.6332 25.2941 20.4164 25.2941C14.1995 25.2941 9.15649 20.6399 9.15649 14.9025V7.03773C9.15649 6.59639 9.54776 6.23529 10.026 6.23529H30.8067Z" fill="#B7C2E8"/>
<path fill-rule="evenodd" clip-rule="evenodd" d="M18.3691 23.0706C18.9909 23.0706 19.4951 23.592 19.4951 24.2353L19.4951 28.4706C19.4951 29.1138 18.9909 29.6353 18.3691 29.6353C17.7472 29.6353 17.2431 29.1138 17.2431 28.4706L17.2431 24.2353C17.2431 23.592 17.7472 23.0706 18.3691 23.0706Z" fill="#B7C2E8"/>
<path fill-rule="evenodd" clip-rule="evenodd" d="M22.4636 23.0706C23.0854 23.0706 23.5895 23.592 23.5895 24.2353L23.5895 28.4706C23.5895 29.1138 23.0854 29.6353 22.4636 29.6353C21.8417 29.6353 21.3376 29.1138 21.3376 28.4706L21.3376 24.2353C21.3376 23.592 21.8417 23.0706 22.4636 23.0706Z" fill="#B7C2E8"/>
<path fill-rule="evenodd" clip-rule="evenodd" d="M14.4793 29.7412V31.4353H26.3534V29.7412H14.4793ZM14.2746 27.4118C13.1439 27.4118 12.2274 28.3599 12.2274 29.5294V31.6471C12.2274 32.8166 13.1439 33.7647 14.2746 33.7647H26.5581C27.6887 33.7647 28.6053 32.8166 28.6053 31.6471V29.5294C28.6053 28.3599 27.6887 27.4118 26.5581 27.4118H14.2746Z" fill="#B7C2E8"/>
<path fill-rule="evenodd" clip-rule="evenodd" d="M9.36122 4.32941V6.02353H31.4715V4.32941H9.36122ZM9.1565 2C8.02584 2 7.10925 2.9481 7.10925 4.11765V6.23529C7.10925 7.40484 8.02584 8.35294 9.1565 8.35294H31.6762C32.8069 8.35294 33.7235 7.40484 33.7235 6.23529V4.11765C33.7235 2.9481 32.8069 2 31.6762 2H9.1565Z" fill="#B7C2E8"/>
<path fill-rule="evenodd" clip-rule="evenodd" d="M9.36122 33.9765V35.6706H31.4715V33.9765H9.36122ZM9.1565 31.6471C8.02584 31.6471 7.10925 32.5952 7.10925 33.7647V35.8824C7.10925 37.0519 8.02584 38 9.1565 38H31.6762C32.8069 38 33.7235 37.0519 33.7235 35.8824V33.7647C33.7235 32.5952 32.8069 31.6471 31.6762 31.6471H9.1565Z" fill="#B7C2E8"/>
<path fill-rule="evenodd" clip-rule="evenodd" d="M9.85635 9.66326C10.3609 10.0792 10.818 10.5793 11.0791 11.0804C11.3741 11.6466 11.1695 12.3531 10.6221 12.6582C10.0746 12.9634 9.39169 12.7518 9.09666 12.1855C9.03247 12.0623 8.82542 11.792 8.45294 11.485C8.09632 11.1911 7.65873 10.9225 7.20402 10.7547C6.74803 10.5864 6.32372 10.5366 5.9586 10.6084C5.61614 10.6757 5.2543 10.8622 4.90413 11.3083C4.71962 11.5433 4.57211 11.995 4.6464 12.6844C4.71908 13.3587 4.99841 14.1545 5.51319 14.9223C6.52901 16.4374 8.41668 17.7765 11.2037 17.7765C11.8256 17.7765 12.3297 18.2979 12.3297 18.9412C12.3297 19.5844 11.8256 20.1059 11.2037 20.1059C7.64768 20.1059 5.08147 18.3659 3.66268 16.2498C2.96016 15.2019 2.52702 14.0441 2.4083 12.9425C2.29119 11.8559 2.47337 10.7094 3.1559 9.83995C3.82896 8.98255 4.65464 8.49359 5.53823 8.31993C6.39916 8.15072 7.23943 8.2945 7.96077 8.56071C8.68339 8.8274 9.33589 9.23427 9.85635 9.66326Z" fill="#B7C2E8"/>
<path fill-rule="evenodd" clip-rule="evenodd" d="M30.8841 9.66326C30.3795 10.0792 29.9225 10.5793 29.6614 11.0804C29.3664 11.6466 29.571 12.3531 30.1184 12.6582C30.6658 12.9634 31.3488 12.7518 31.6438 12.1855C31.708 12.0623 31.915 11.792 32.2875 11.485C32.6441 11.1911 33.0817 10.9225 33.5364 10.7547C33.9924 10.5864 34.4167 10.5366 34.7818 10.6084C35.1243 10.6757 35.4861 10.8622 35.8363 11.3083C36.0232 11.5464 36.1754 12.009 36.1071 12.7133C36.0405 13.4009 35.7686 14.2102 35.2635 14.989C34.2676 16.5247 32.4062 17.88 29.6289 17.88C29.0071 17.88 28.503 18.4015 28.503 19.0447C28.503 19.688 29.0071 20.2094 29.6289 20.2094C33.1948 20.2094 35.7411 18.4339 37.1337 16.2866C37.8229 15.2239 38.2404 14.0536 38.3479 12.9458C38.4537 11.8549 38.2647 10.7064 37.5845 9.83995C36.9115 8.98255 36.0858 8.49359 35.2022 8.31993C34.3413 8.15072 33.501 8.2945 32.7797 8.56071C32.0571 8.8274 31.4046 9.23427 30.8841 9.66326Z" fill="#B7C2E8"/>
</svg>
