<svg width="40" height="40" viewBox="0 0 40 40" fill="none" xmlns="http://www.w3.org/2000/svg">
<g clip-path="url(#clip0_407_159)">
<path d="M29.0148 4.7121L28.9861 4.66236L28.9287 4.6621L11.1408 4.58249L11.0824 4.58223L11.0535 4.63287L2.22849 20.0775L2.19999 20.1273L2.22871 20.1771L11.1916 35.7013L11.2203 35.751L11.2778 35.7513L29.0657 35.8309L29.124 35.8312L29.153 35.7805L37.978 20.3359L38.0065 20.286L37.9777 20.2363L29.0148 4.7121ZM12.4938 33.5567L4.73706 20.1217L12.3559 6.78795L27.7127 6.85668L35.4694 20.2917L27.8505 33.6254L12.4938 33.5567Z" fill="#B7C2E8" stroke="#B7C2E8" stroke-width="0.2"/>
<path d="M25.2727 11.0799L25.244 11.0302L25.1865 11.0299L14.783 10.9833L14.7246 10.9831L14.6957 11.0337L9.53423 20.0668L9.50573 20.1166L9.53445 20.1664L14.7766 29.246L14.8053 29.2957L14.8627 29.296L25.2663 29.3425L25.3246 29.3428L25.3536 29.2922L30.515 20.2591L30.5435 20.2093L30.5148 20.1595L25.2727 11.0799ZM16.0787 27.1014L12.0428 20.111L15.9981 13.1888L23.9705 13.2245L28.0065 20.2149L24.0511 27.1371L16.0787 27.1014Z" fill="#B7C2E8" stroke="#B7C2E8" stroke-width="0.2"/>
<path d="M15.0568 13.5659C15.0704 13.5887 15.0925 13.6051 15.1183 13.6115C15.144 13.6179 15.1712 13.6139 15.194 13.6002L16.909 12.5713C16.9563 12.5428 16.9717 12.4814 16.9433 12.4341L12.4433 4.93405C12.4148 4.8867 12.3534 4.87134 12.3061 4.89975L10.5911 5.92875C10.5683 5.94239 10.5519 5.96451 10.5455 5.99024C10.5391 6.01597 10.5431 6.0432 10.5568 6.06595L15.0568 13.5659Z" fill="#B7C2E8" stroke="#B7C2E8" stroke-width="0.2" stroke-linejoin="round"/>
<path d="M11.5 21.1C11.5265 21.1 11.552 21.0895 11.5707 21.0707C11.5895 21.052 11.6 21.0265 11.6 21L11.6 19C11.6 18.9448 11.5552 18.9 11.5 18.9L4.5 18.9C4.44477 18.9 4.4 18.9448 4.4 19L4.4 21C4.4 21.0552 4.44477 21.1 4.5 21.1L11.5 21.1Z" fill="#B7C2E8" stroke="#B7C2E8" stroke-width="0.2" stroke-linejoin="round"/>
<path d="M36 21.1C36.0265 21.1 36.052 21.0895 36.0707 21.0707C36.0895 21.052 36.1 21.0265 36.1 21L36.1 19C36.1 18.9448 36.0552 18.9 36 18.9L29 18.9C28.9448 18.9 28.9 18.9448 28.9 19L28.9 21C28.9 21.0552 28.9448 21.1 29 21.1L36 21.1Z" fill="#B7C2E8" stroke="#B7C2E8" stroke-width="0.2" stroke-linejoin="round"/>
<path d="M23.0567 12.4341C23.0283 12.4814 23.0437 12.5428 23.091 12.5713L24.806 13.6002C24.8288 13.6139 24.856 13.6179 24.8817 13.6115C24.9075 13.6051 24.9296 13.5887 24.9432 13.5659L29.4432 6.06595C29.4716 6.01859 29.4563 5.95716 29.4089 5.92875L27.6939 4.89976C27.6712 4.88611 27.644 4.88206 27.6182 4.88849C27.5925 4.89493 27.5704 4.91132 27.5567 4.93406L23.0567 12.4341Z" fill="#B7C2E8" stroke="#B7C2E8" stroke-width="0.2" stroke-linejoin="round"/>
<path d="M25.4369 27.4235C25.4079 27.3765 25.3463 27.3618 25.2993 27.3907L23.596 28.4389C23.5734 28.4528 23.5572 28.4751 23.5511 28.5009C23.5449 28.5267 23.5493 28.5539 23.5632 28.5765L27.5632 35.0765C27.5921 35.1235 27.6537 35.1382 27.7008 35.1093L29.4041 34.0611C29.4267 34.0472 29.4428 34.0249 29.449 33.9991C29.4551 33.9733 29.4508 33.9461 29.4369 33.9235L25.4369 27.4235Z" fill="#B7C2E8" stroke="#B7C2E8" stroke-width="0.2" stroke-linejoin="round"/>
<path d="M16.5835 28.5355C16.6104 28.4873 16.5931 28.4264 16.5448 28.3995L14.7978 27.4258C14.7746 27.4129 14.7473 27.4097 14.7218 27.417C14.6963 27.4242 14.6747 27.4413 14.6618 27.4645L11.0392 33.9645C11.0123 34.0127 11.0296 34.0736 11.0778 34.1005L12.8248 35.0742C12.8731 35.1011 12.934 35.0837 12.9609 35.0355L16.5835 28.5355Z" fill="#B7C2E8" stroke="#B7C2E8" stroke-width="0.2" stroke-linejoin="round"/>
<path d="M21.9 20C21.9 21.0493 21.0493 21.9 20 21.9C18.9507 21.9 18.1 21.0493 18.1 20C18.1 18.9507 18.9507 18.1 20 18.1C21.0493 18.1 21.9 18.9507 21.9 20ZM20 24.1C22.2644 24.1 24.1 22.2644 24.1 20C24.1 17.7356 22.2644 15.9 20 15.9C17.7356 15.9 15.9 17.7356 15.9 20C15.9 22.2644 17.7356 24.1 20 24.1Z" fill="#B7C2E8" stroke="#B7C2E8" stroke-width="0.2"/>
</g>
<defs>
<clipPath id="clip0_407_159">
<rect width="40" height="40" fill="white"/>
</clipPath>
</defs>
</svg>
