<svg width="24" height="24" viewBox="0 0 24 24" fill="none" xmlns="http://www.w3.org/2000/svg">
<path fill-rule="evenodd" clip-rule="evenodd" d="M10.3861 14.3726C10.2418 14.3315 10.0816 14.3521 9.95337 14.4341C9.82517 14.5111 9.73436 14.6393 9.713 14.7829L9.20554 17.6964C9.17883 17.8451 9.22156 17.999 9.32305 18.1118C9.42455 18.2247 9.57411 18.2913 9.72902 18.2913H14.2641C14.419 18.2913 14.5686 18.2247 14.6701 18.1118C14.7716 17.999 14.8143 17.8451 14.7876 17.6964L14.2801 14.7829C14.2534 14.6393 14.168 14.5111 14.0398 14.4341C13.9116 14.3572 13.7513 14.3367 13.6071 14.3726C13.0889 14.5162 12.5441 14.588 11.9939 14.588C11.9939 14.588 11.9939 14.588 11.9886 14.588C11.449 14.588 10.9042 14.5162 10.3861 14.3726Z" fill="url(#paint0_linear_7766_42283)"/>
<path fill-rule="evenodd" clip-rule="evenodd" d="M17.9772 21.0403V18.5988C17.9772 17.8601 17.3575 17.2651 16.5883 17.2651H7.4113C6.6421 17.2651 6.02246 17.8601 6.02246 18.5988V21.0403C6.02246 21.3224 6.26284 21.5532 6.55663 21.5532H17.4377C17.7368 21.5532 17.9772 21.3275 17.9772 21.0403Z" fill="url(#paint1_linear_7766_42283)"/>
<path fill-rule="evenodd" clip-rule="evenodd" d="M18.1209 4.26735C17.9553 4.35967 17.8538 4.52894 17.8538 4.71359V6.6935C17.8538 6.88329 17.9606 7.05768 18.1369 7.14488C18.3078 7.23208 18.5215 7.22695 18.6817 7.12436C19.2693 6.75505 19.8142 6.4473 20.3056 6.25751C20.4872 6.19083 20.6528 6.12928 20.8024 6.10876C20.8879 6.0985 20.9626 6.10363 21.0161 6.18057C21.2351 6.4832 21.203 6.88328 21.0855 7.30389C20.7864 8.34 19.8836 9.45306 18.607 10.325C18.2918 10.5405 17.966 10.7303 17.6455 10.8944C17.5333 10.9508 17.4478 11.038 17.3997 11.1509C17.0258 12.0023 16.4436 12.7461 15.7118 13.3257C15.5248 13.4744 15.466 13.7206 15.5622 13.9309C15.6583 14.1412 15.8934 14.2643 16.1338 14.2284C17.4425 14.0284 18.8901 13.4744 20.2362 12.5563C22.1218 11.2688 23.3718 9.56078 23.8098 8.03225C24.1784 6.73967 24.0074 5.53941 23.329 4.61614C22.5117 3.49282 21.4114 3.17993 20.0439 3.48769C19.467 3.60567 18.8206 3.88265 18.1209 4.26735Z" fill="url(#paint2_linear_7766_42283)"/>
<path fill-rule="evenodd" clip-rule="evenodd" d="M6.15024 4.7136C6.15024 4.52894 6.04874 4.35968 5.88315 4.26735C5.17805 3.88265 4.5317 3.60567 3.9548 3.47744C2.59267 3.16968 1.48693 3.48257 0.669655 4.60588C-0.00339923 5.52916 -0.179675 6.72941 0.188902 8.02199C0.626921 9.55052 1.87688 11.2586 3.7625 12.546C5.11395 13.4693 6.5562 14.0233 7.86492 14.2182C8.1053 14.2541 8.33499 14.131 8.43648 13.9207C8.53797 13.7104 8.47387 13.459 8.28691 13.3154C7.5551 12.7409 6.97286 11.9921 6.59894 11.1406C6.55086 11.0329 6.4654 10.9406 6.35322 10.8841C6.02738 10.72 5.70687 10.5302 5.39171 10.3148C4.11505 9.44281 3.20696 8.32975 2.91317 7.29363C2.79031 6.87303 2.75826 6.47295 2.98261 6.17032C3.03603 6.09851 3.11081 6.08825 3.19628 6.09851C3.35119 6.11903 3.51678 6.17545 3.69305 6.24726C4.18983 6.43704 4.73469 6.7448 5.31693 7.11411C5.48252 7.21669 5.69085 7.22695 5.86178 7.13463C6.03272 7.04743 6.14489 6.87303 6.14489 6.68325V4.7136H6.15024Z" fill="url(#paint3_linear_7766_42283)"/>
<path fill-rule="evenodd" clip-rule="evenodd" d="M18.917 2.59057C18.917 2.30845 18.6766 2.07764 18.3829 2.07764H5.6162C5.32241 2.07764 5.08203 2.30845 5.08203 2.59057V8.97141C5.08203 12.6389 8.18022 15.6138 11.9995 15.6138C15.8188 15.6138 18.917 12.6389 18.917 8.97141C18.917 5.80663 18.917 2.59057 18.917 2.59057Z" fill="url(#paint4_linear_7766_42283)"/>
<path d="M11.9993 12.68C14.3712 12.68 16.294 10.8337 16.294 8.55608C16.294 6.27849 14.3712 4.43213 11.9993 4.43213C9.6274 4.43213 7.70459 6.27849 7.70459 8.55608C7.70459 10.8337 9.6274 12.68 11.9993 12.68Z" fill="url(#paint5_linear_7766_42283)"/>
<path fill-rule="evenodd" clip-rule="evenodd" d="M12.3697 6.26804C12.2707 6.12933 12.1093 6.04199 11.9374 6.04199C11.7656 6.04199 11.6041 6.12419 11.5052 6.26804L10.9167 7.12601L9.90638 7.41885C9.73973 7.46509 9.60953 7.59352 9.55745 7.75279C9.50538 7.91205 9.53662 8.09186 9.64078 8.22544L10.2813 9.04744L10.2501 10.0852C10.2449 10.2548 10.323 10.414 10.4636 10.5168C10.6042 10.6195 10.7813 10.6401 10.9427 10.5836L11.9322 10.2342L12.9217 10.5836C13.0831 10.6401 13.2654 10.6144 13.4008 10.5168C13.5362 10.4192 13.6195 10.2548 13.6143 10.0852L13.5831 9.04744L14.2236 8.22544C14.3278 8.09186 14.359 7.91205 14.307 7.75279C14.2549 7.59352 14.1247 7.46509 13.958 7.41885L12.9477 7.12601L12.3697 6.26804Z" fill="#FFE26F"/>
<path fill-rule="evenodd" clip-rule="evenodd" d="M19.7874 1.349C19.7874 0.989954 19.6378 0.646291 19.3761 0.394956C19.1143 0.14362 18.7564 0 18.3825 0C15.7864 0 8.13179 0 5.54107 0C5.16181 0 4.80925 0.14362 4.54217 0.394956C4.28043 0.646291 4.13086 0.989954 4.13086 1.349V1.75422C4.13086 2.11327 4.28043 2.45693 4.54217 2.70827C4.80391 2.9596 5.16181 3.10322 5.53573 3.10322H18.3772C18.7511 3.10322 19.109 2.9596 19.3707 2.70827C19.6325 2.45693 19.782 2.11327 19.782 1.75422V1.349H19.7874Z" fill="url(#paint6_linear_7766_42283)"/>
<path fill-rule="evenodd" clip-rule="evenodd" d="M20.2418 22.2659C20.2418 21.8043 20.0495 21.3632 19.713 21.04C19.3711 20.7169 18.9117 20.5322 18.4363 20.5322H5.56819C5.08744 20.5322 4.62805 20.7169 4.29152 21.04C3.94965 21.3683 3.7627 21.8094 3.7627 22.2659C3.7627 22.7276 3.955 23.1687 4.29152 23.4918C4.62805 23.8201 5.09278 23.9996 5.56819 23.9996H18.431C18.9117 23.9996 19.3711 23.815 19.7077 23.4918C20.0495 23.1687 20.2418 22.7276 20.2418 22.2659Z" fill="url(#paint7_linear_7766_42283)"/>
<defs>
<linearGradient id="paint0_linear_7766_42283" x1="11.9993" y1="16.6369" x2="11.9993" y2="14.0058" gradientUnits="userSpaceOnUse">
<stop stop-color="#FFBC08"/>
<stop offset="1" stop-color="#FF9416"/>
</linearGradient>
<linearGradient id="paint1_linear_7766_42283" x1="11.9999" y1="18.5679" x2="11.9999" y2="22.483" gradientUnits="userSpaceOnUse">
<stop stop-color="#2D77FF"/>
<stop offset="1" stop-color="#4B0AFF"/>
</linearGradient>
<linearGradient id="paint2_linear_7766_42283" x1="21.0355" y1="8.7963" x2="16.395" y2="8.7963" gradientUnits="userSpaceOnUse">
<stop stop-color="#FFBC08"/>
<stop offset="1" stop-color="#F99335"/>
</linearGradient>
<linearGradient id="paint3_linear_7766_42283" x1="3.23606" y1="8.79645" x2="7.13293" y2="8.79645" gradientUnits="userSpaceOnUse">
<stop stop-color="#FFBC08"/>
<stop offset="1" stop-color="#F99335"/>
</linearGradient>
<linearGradient id="paint4_linear_7766_42283" x1="11.9996" y1="4.61657" x2="11.9996" y2="1.02606" gradientUnits="userSpaceOnUse">
<stop stop-color="#FFE85F"/>
<stop offset="1" stop-color="#FFA800"/>
</linearGradient>
<linearGradient id="paint5_linear_7766_42283" x1="11.9993" y1="4.43213" x2="11.9993" y2="12.68" gradientUnits="userSpaceOnUse">
<stop stop-color="#FF7A50"/>
<stop offset="1" stop-color="#FF961B"/>
</linearGradient>
<linearGradient id="paint6_linear_7766_42283" x1="11.9596" y1="2.07884" x2="11.9596" y2="5.14738" gradientUnits="userSpaceOnUse">
<stop stop-color="#FFBC08"/>
<stop offset="1" stop-color="#F99335"/>
</linearGradient>
<linearGradient id="paint7_linear_7766_42283" x1="11.9997" y1="22.6711" x2="11.9997" y2="27.8004" gradientUnits="userSpaceOnUse">
<stop stop-color="#FFBC08"/>
<stop offset="1" stop-color="#F99335"/>
</linearGradient>
</defs>
</svg>
