<svg width="28" height="28" viewBox="0 0 28 28" fill="none" xmlns="http://www.w3.org/2000/svg">
    <g clip-path="url(#clip0_9051_70049)">
        <circle cx="14" cy="14" r="14" fill="url(#paint0_linear_9051_70049)" />
        <circle cx="14.0007" cy="14.0008" r="11.1624" fill="url(#paint1_linear_9051_70049)" />
        <g opacity="0.32" filter="url(#filter0_f_9051_70049)">
            <path fill-rule="evenodd" clip-rule="evenodd"
                d="M13.1979 24.3595C19.3627 24.3595 24.3603 19.3619 24.3603 13.1971C24.3603 10.3189 23.2709 7.69507 21.482 5.71552C23.7424 7.75822 25.1627 10.713 25.1627 13.9996C25.1627 20.1644 20.1652 25.1619 14.0004 25.1619C10.7138 25.1619 7.75901 23.7416 5.71631 21.4812C7.69586 23.2701 10.3197 24.3595 13.1979 24.3595Z"
                fill="#FFE26F" />
        </g>
        <g opacity="0.61" filter="url(#filter1_f_9051_70049)">
            <path fill-rule="evenodd" clip-rule="evenodd"
                d="M22.2847 6.51906C20.3051 4.73008 17.6813 3.64067 14.803 3.64067C8.63819 3.64067 3.64064 8.63822 3.64064 14.803C3.64064 17.6813 4.73004 20.3052 6.51902 22.2847C4.25871 20.242 2.83838 17.2873 2.83838 14.0008C2.83838 7.83597 7.83594 2.83841 14.0007 2.83841C17.2872 2.83841 20.242 4.25874 22.2847 6.51906Z"
                fill="#F99335" />
        </g>
        <path
            d="M16.7976 4.66663H11.2083C10.6641 4.66663 10.3235 5.30693 10.5959 5.81894L12.1433 8.73074H15.8626L17.4103 5.81894C17.683 5.30693 17.3423 4.66663 16.7976 4.66663Z"
            fill="white" />
        <path
            d="M15.593 8.9198H12.4072C9.25566 9.97457 7 12.802 7 16.1251C7 16.2616 7.00378 16.3972 7.01133 16.5319C7.18959 19.7305 9.74191 22.1666 12.6923 22.1666H15.3077C18.2578 22.1666 20.8101 19.7305 20.9887 16.5319C20.9962 16.3972 21 16.2616 21 16.1251C21 12.802 18.7441 9.97487 15.593 8.9198Z"
            fill="white" />
        <path
            d="M14.5057 16.4937V18.2073C14.6176 18.1927 14.7295 18.1684 14.8414 18.1343C14.9533 18.1003 15.0518 18.0517 15.1368 17.9885C15.2263 17.9253 15.2979 17.8451 15.3516 17.7479C15.4053 17.6507 15.4322 17.5291 15.4322 17.3833C15.4322 17.2569 15.4053 17.1475 15.3516 17.0552C15.2979 16.958 15.2263 16.8753 15.1368 16.8073C15.0518 16.7343 14.9533 16.6736 14.8414 16.625C14.734 16.5764 14.6221 16.5326 14.5057 16.4937ZM13.7001 14.5177V12.826C13.5927 12.8406 13.4875 12.8673 13.3846 12.9062C13.2816 12.9402 13.1899 12.9889 13.1093 13.052C13.0287 13.1104 12.9638 13.1882 12.9146 13.2854C12.8654 13.3826 12.8408 13.4993 12.8408 13.6354C12.8408 13.7666 12.8654 13.8809 12.9146 13.9781C12.9638 14.0705 13.0287 14.1531 13.1093 14.226C13.1899 14.2941 13.2816 14.3524 13.3846 14.401C13.4875 14.4448 13.5927 14.4836 13.7001 14.5177ZM14.5057 21.0073H13.7001V18.9948C13.5076 18.9802 13.3219 18.9534 13.1429 18.9145C12.9683 18.8708 12.7893 18.8076 12.6058 18.725C12.4268 18.6423 12.2365 18.5402 12.0351 18.4187C11.8337 18.2972 11.6099 18.1489 11.3638 17.9739L12.203 16.7416C12.2701 16.9264 12.3529 17.1014 12.4514 17.2666C12.5543 17.427 12.6684 17.5729 12.7938 17.7041C12.9191 17.8305 13.0578 17.9375 13.21 18.025C13.3622 18.1125 13.5255 18.1708 13.7001 18.2V16.2604C13.4495 16.1826 13.1921 16.0951 12.928 15.9979C12.6684 15.8958 12.429 15.7694 12.2097 15.6187C11.9904 15.4632 11.8113 15.2711 11.6726 15.0427C11.5338 14.8142 11.4645 14.5298 11.4645 14.1895C11.4645 13.8007 11.5227 13.4725 11.639 13.2052C11.7599 12.9378 11.9232 12.7191 12.1291 12.5489C12.335 12.3788 12.5722 12.2524 12.8408 12.1698C13.1093 12.0871 13.3957 12.0336 13.7001 12.0093V10.0479H14.5057V12.0239C14.6668 12.0336 14.8302 12.0555 14.9958 12.0895C15.1659 12.1236 15.3382 12.1795 15.5128 12.2573C15.6918 12.335 15.8775 12.4371 16.07 12.5635C16.2669 12.6899 16.4773 12.8503 16.7011 13.0448L15.8619 14.277C15.741 13.8882 15.5709 13.5625 15.3516 13.3C15.1368 13.0326 14.8548 12.8722 14.5057 12.8187V14.7437C14.7564 14.8215 15.016 14.9114 15.2845 15.0135C15.5575 15.1107 15.8059 15.2371 16.0297 15.3927C16.2535 15.5482 16.437 15.7427 16.5802 15.976C16.7279 16.2045 16.8018 16.4889 16.8018 16.8291C16.8018 17.2277 16.7391 17.5632 16.6138 17.8354C16.4885 18.1027 16.3206 18.3215 16.1103 18.4916C15.8999 18.6569 15.656 18.7809 15.3785 18.8635C15.101 18.9413 14.8101 18.9899 14.5057 19.0093V21.0073Z"
            fill="#FFBC08" />
        <rect x="10.5" y="8.16663" width="7" height="1.16667" fill="#FFB415" />
    </g>
    <defs>
        <filter id="filter0_f_9051_70049" x="1.71631" y="1.71552" width="27.4463" height="27.4464"
            filterUnits="userSpaceOnUse" color-interpolation-filters="sRGB">
            <feFlood flood-opacity="0" result="BackgroundImageFix" />
            <feBlend mode="normal" in="SourceGraphic" in2="BackgroundImageFix" result="shape" />
            <feGaussianBlur stdDeviation="2" result="effect1_foregroundBlur_9051_70049" />
        </filter>
        <filter id="filter1_f_9051_70049" x="-1.16162" y="-1.16159" width="27.4463" height="27.4463"
            filterUnits="userSpaceOnUse" color-interpolation-filters="sRGB">
            <feFlood flood-opacity="0" result="BackgroundImageFix" />
            <feBlend mode="normal" in="SourceGraphic" in2="BackgroundImageFix" result="shape" />
            <feGaussianBlur stdDeviation="2" result="effect1_foregroundBlur_9051_70049" />
        </filter>
        <linearGradient id="paint0_linear_9051_70049" x1="5.19729" y1="3.09588" x2="22.4782" y2="24.21"
            gradientUnits="userSpaceOnUse">
            <stop stop-color="#FFC700" />
            <stop offset="1" stop-color="#FFA800" />
        </linearGradient>
        <linearGradient id="paint1_linear_9051_70049" x1="8.71704" y1="7.49538" x2="20.2796" y2="22.4512"
            gradientUnits="userSpaceOnUse">
            <stop stop-color="#FFA800" />
            <stop offset="0.938927" stop-color="#FFC838" />
        </linearGradient>
        <clipPath id="clip0_9051_70049">
            <rect width="28" height="28" fill="white" />
        </clipPath>
    </defs>
</svg>