<svg width="56" height="56" viewBox="0 0 56 56" fill="none" xmlns="http://www.w3.org/2000/svg">
<rect width="56" height="56" rx="16" fill="white"/>
<path d="M26.1537 12.8398C26.8369 11.1972 29.1638 11.1972 29.847 12.8398L32.7155 19.7365C33.0035 20.4289 33.6548 20.9021 34.4023 20.962L41.8479 21.5589C43.6212 21.7011 44.3403 23.9141 42.9892 25.0714L37.3165 29.9307C36.7469 30.4186 36.4981 31.1842 36.6722 31.9137L38.4053 39.1793C38.818 40.9097 36.9355 42.2775 35.4173 41.3501L29.0429 37.4567C28.4029 37.0657 27.5979 37.0657 26.9579 37.4567L20.5835 41.3501C19.0653 42.2775 17.1827 40.9097 17.5955 39.1793L19.3286 31.9137C19.5026 31.1842 19.2539 30.4186 18.6843 29.9307L13.0116 25.0714C11.6605 23.9141 12.3796 21.7011 14.1529 21.5589L21.5984 20.962C22.346 20.9021 22.9972 20.4289 23.2853 19.7365L26.1537 12.8398Z" fill="#00C242"/>
</svg>
