<svg width="40" height="40" viewBox="0 0 40 40" fill="none" xmlns="http://www.w3.org/2000/svg">
<path d="M20 40C31.0843 40 40 31.0843 40 20C40 8.91566 30.9639 0 20 0C8.91566 0 0 8.91566 0 20C0 30.9639 8.91566 40 20 40Z" fill="#2CB5E5"/>
<path d="M8.3132 19.7591C8.3132 19.7591 18.3132 15.6627 21.8072 14.2169C23.1325 13.6145 27.5903 11.8073 27.5903 11.8073C27.5903 11.8073 29.6385 10.9639 29.518 13.0121C29.518 13.8555 29.0361 16.6265 28.5542 19.7591C27.8313 24.0964 27.1084 28.7952 27.1084 28.7952C27.1084 28.7952 26.9879 30.1205 26.024 30.3615C25.0602 30.6024 23.3734 29.5181 23.1325 29.2771C22.8915 29.1567 18.7951 26.5061 17.2289 25.3012C16.8674 24.9398 16.3855 24.2169 17.2289 23.494C19.2771 21.5663 21.8072 19.2771 23.253 17.7109C23.9759 16.988 24.6987 15.4217 21.8072 17.3494C17.7108 20.1205 13.6144 22.8916 13.6144 22.8916C13.6144 22.8916 12.6506 23.494 10.9638 22.8916C9.27706 22.4097 7.22887 21.6868 7.22887 21.6868C7.22887 21.6868 5.90356 20.7229 8.3132 19.7591Z" fill="white"/>
</svg>
