<svg width="40" height="40" viewBox="0 0 40 40" fill="none" xmlns="http://www.w3.org/2000/svg">
<circle cx="20" cy="20" r="17" fill="white"/>
<path d="M20 0C8.91566 0 0 8.91566 0 20C0 31.0843 8.91566 40 20 40C31.0843 40 40 31.0843 40 20C40 8.91566 30.9639 0 20 0ZM33.1325 11.8072C33.1325 11.9277 33.1325 12.0482 33.012 12.1687C32.4096 13.012 31.6867 13.7349 30.9639 14.3373C30.8434 14.4578 30.6024 14.5783 30.6024 14.6988C30.6024 19.0361 29.5181 23.3735 26.3855 26.506C22.4096 30.4819 16.3855 31.5663 11.0843 30.1205C10 29.8795 9.03614 29.3976 8.07229 28.9157C7.71084 28.7952 7.46988 28.5542 7.10843 28.3133C6.98795 28.1928 6.98795 28.1928 6.98795 28.1928C7.10843 28.1928 7.10843 28.1928 7.3494 28.1928C8.79518 28.3133 10.3614 28.0723 11.8072 27.5904C12.5301 27.3494 14.2169 26.747 14.6988 26.0241C14.4578 26.0241 14.3373 26.0241 14.0964 25.9036C12.6506 25.5422 10.7229 24.8193 9.75904 22.2892C9.75904 22.1687 9.75904 22.0482 9.87952 22.0482C11.0843 22.1687 11.4458 22.0482 11.9277 21.9277C11.6867 21.9277 11.4458 21.8072 11.2048 21.6867C9.39759 20.9639 8.07229 19.1566 7.83132 17.2289C7.83132 16.988 7.83132 16.8675 7.83132 16.6265C7.83132 16.506 7.95181 16.3855 8.07229 16.506C9.03614 16.988 10.1205 17.1084 10.1205 17.1084C10 17.2289 9.75904 16.988 9.63855 16.8675C8.07229 15.4217 7.46988 12.2892 8.6747 10.3614C8.79518 10.241 8.79518 10.241 8.91566 10.3614C11.8072 13.6145 15.4217 15.1807 19.6386 15.7831C19.759 15.7831 19.759 15.7831 19.759 15.6626C19.6386 14.9398 19.6386 14.2169 19.759 13.3735C20 12.6506 20.3614 11.8072 20.8434 11.2048C21.3253 10.6024 21.9277 10.1205 22.6506 9.75904C23.3735 9.39759 24.0964 9.15663 24.8193 9.15663C25.6626 9.15663 26.3855 9.27711 27.1084 9.51807C27.7108 9.75904 28.1928 10 28.6747 10.4819C28.9157 10.6024 28.9157 10.7229 29.0361 10.8434C29.0361 10.8434 29.1566 10.9639 29.2771 10.8434C30.3614 10.6024 31.4458 10.1205 32.4096 9.63855H32.5301V9.75904C32.4096 10.3614 32.0482 10.8434 31.6867 11.3253C31.4458 11.6867 30.8434 12.4096 30.3614 12.5301C31.3253 12.4096 32.1687 12.1687 33.1325 11.8072C33.1325 11.8072 33.1325 11.6867 33.1325 11.8072Z" fill="#369CFB"/>
</svg>
