<svg width="24" height="24" viewBox="0 0 24 24" fill="none" xmlns="http://www.w3.org/2000/svg">
<path d="M12 4C7.58862 4 4 7.58862 4 12C4 16.4114 7.58862 20 12 20C16.4114 20 20 16.4114 20 12C20 7.58862 16.4114 4 12 4Z" fill="#00DB4A"/>
<path d="M15.8004 10.2051L11.375 14.7931C11.2422 14.9307 11.0679 15 10.8937 15C10.7194 15 10.5451 14.9307 10.4123 14.7931L8.19971 12.4991C7.93343 12.2231 7.93343 11.777 8.19971 11.501C8.46586 11.225 8.89607 11.225 9.16235 11.501L10.8937 13.296L14.8377 9.20705C15.1039 8.93098 15.5341 8.93098 15.8004 9.20705C16.0665 9.48299 16.0665 9.92902 15.8004 10.2051Z" fill="#FAFAFA"/>
</svg>
