<svg width="64" height="64" viewBox="0 0 64 64" fill="none" xmlns="http://www.w3.org/2000/svg">
<g clip-path="url(#clip0_8684_43500)">
<path d="M32 64C49.6731 64 64 49.6731 64 32C64 14.3269 49.6731 0 32 0C14.3269 0 0 14.3269 0 32C0 49.6731 14.3269 64 32 64Z" fill="url(#paint0_linear_8684_43500)"/>
<path d="M32 56.832C45.7143 56.832 56.832 45.7143 56.832 32C56.832 18.2856 45.7143 7.16797 32 7.16797C18.2856 7.16797 7.16797 18.2856 7.16797 32C7.16797 45.7143 18.2856 56.832 32 56.832Z" fill="url(#paint1_linear_8684_43500)"/>
<path d="M31.9999 54.5599C44.4595 54.5599 54.5599 44.4595 54.5599 31.9999C54.5599 19.5404 44.4595 9.43994 31.9999 9.43994C19.5404 9.43994 9.43994 19.5404 9.43994 31.9999C9.43994 44.4595 19.5404 54.5599 31.9999 54.5599Z" fill="url(#paint2_linear_8684_43500)"/>
<circle cx="32" cy="32" r="14.5" stroke="#FFFFD5" stroke-width="3"/>
<rect x="28" y="14" width="8" height="8" fill="#EE8504"/>
<rect x="28" y="42" width="8" height="8" fill="#FAA114"/>
</g>
<path d="M34.9688 36.5426C34.9688 35.8276 34.7443 35.2387 34.2952 34.776C33.8462 34.3049 33.0977 33.8843 32.0499 33.5142C31.0021 33.1356 30.1871 32.7865 29.605 32.4669C27.6674 31.4154 26.6985 29.8591 26.6985 27.7981C26.6985 26.4017 27.1185 25.2534 27.9584 24.3533C28.7983 23.4532 29.9376 22.919 31.3763 22.7508V20.9979C31.3763 20.4468 31.8231 20 32.3742 20C32.9254 20 33.3721 20.4468 33.3721 20.9979V22.776C34.8191 22.9863 35.9376 23.6088 36.7277 24.6435C37.3516 25.4541 37.7292 26.4589 37.8603 27.6578C37.9204 28.2069 37.465 28.6562 36.9127 28.6562H35.894C35.3417 28.6562 34.909 28.2045 34.813 27.6606C34.707 27.06 34.497 26.559 34.183 26.1577C33.7173 25.5436 33.0811 25.2366 32.2744 25.2366C31.4761 25.2366 30.8524 25.4553 30.4033 25.8927C29.9543 26.3302 29.7297 26.9569 29.7297 27.7729C29.7297 28.5047 29.9501 29.0936 30.3909 29.5394C30.8399 29.9769 31.5967 30.3933 32.6611 30.7886C33.7256 31.184 34.5613 31.5499 35.1684 31.8864C35.7755 32.2229 36.2869 32.6099 36.7027 33.0473C37.1185 33.4763 37.4387 33.9727 37.6632 34.5363C37.8877 35.0999 38 35.7603 38 36.5174C38 37.939 37.5676 39.0915 36.7027 39.9748C35.8462 40.858 34.6486 41.3796 33.1102 41.5394V43.0083C33.1102 43.556 32.6662 44 32.1185 44C31.5708 44 31.1268 43.556 31.1268 43.0083V41.5521C29.4802 41.367 28.2121 40.7697 27.3222 39.7603C26.6243 38.961 26.2027 37.9561 26.0573 36.7456C25.9915 36.1972 26.4477 35.7476 27 35.7476H28.0312C28.5835 35.7476 29.0142 36.2003 29.1213 36.7421C29.2387 37.3356 29.4706 37.8243 29.817 38.2082C30.3493 38.7886 31.0977 39.0789 32.0624 39.0789C33.0104 39.0789 33.7297 38.8475 34.2204 38.3849C34.7193 37.9222 34.9688 37.3081 34.9688 36.5426Z" fill="#FFFFD5"/>
<defs>
<linearGradient id="paint0_linear_8684_43500" x1="36.0836" y1="63.779" x2="27.9763" y2="0.302412" gradientUnits="userSpaceOnUse">
<stop stop-color="#FFA402"/>
<stop offset="1" stop-color="#FDF25E"/>
</linearGradient>
<linearGradient id="paint1_linear_8684_43500" x1="35.1752" y1="56.6663" x2="28.8847" y2="7.41485" gradientUnits="userSpaceOnUse">
<stop offset="0.0351351" stop-color="#FCFB47"/>
<stop offset="1" stop-color="#FBB714"/>
</linearGradient>
<linearGradient id="paint2_linear_8684_43500" x1="34.8871" y1="54.4103" x2="29.1728" y2="9.67054" gradientUnits="userSpaceOnUse">
<stop stop-color="#FFAD1B"/>
<stop offset="1" stop-color="#EB7E00"/>
</linearGradient>
<clipPath id="clip0_8684_43500">
<rect width="64" height="64" fill="white"/>
</clipPath>
</defs>
</svg>
